PathFileType	4	(X/Y/Z)	3_coords_data.trc
DataRate	CameraRate	NumFrames	NumMarkers	Units	OrigDataRate	OrigDataStartFrame	OrigNumFrames
30.0	30.0	7	21	m	30.0	59	78
Frame#	Time	THUMB_TIP	THUMB_IP	THUMB_MCP	THUMB_CMC	INDEX_TIP	INDEX_DIP	INDEX_PIP	INDEX_MCP	MIDDLE_TIP	MIDDLE_DIP	MIDDLE_PIP	MIDDLE_MCP	RING_TIP	RING_DIP	RING_PIP	RING_MCP	PINKY_TIP	PINKY_DIP	PINKY_PIP	PINKY_MCP	WRIST
X1	Y1	Z1	X2	Y2	Z2	X3	Y3	Z3	X4	Y4	Z4	X5	Y5	Z5	X6	Y6	Z6	X7	Y7	Z7	X8	Y8	Z8	X9	Y9	Z9	X10	Y10	Z10	X11	Y11	Z11	X12	Y12	Z12	X13	Y13	Z13	X14	Y14	Z14	X15	Y15	Z15	X16	Y16	Z16	X17	Y17	Z17	X18	Y18	Z18	X19	Y19	Z19	X20	Y20	Z20	X21	Y21	Z21
57	1.9333333333333247	0.5242987199070976	-0.006279163176022062	-0.15401193973838045	0.5065864834261605	-0.011949988164534742	-0.1405168138481553	0.48782988440371333	-0.024188192773846318	-0.11890116347506319	0.4781770661508288	-0.027194338179060473	-0.07545376781572022	0.5755760523843874	0.0297628833275414	-0.14804184910338142	0.5575943549128018	0.03120617173853757	-0.14643702057576197	0.5333580385394199	0.029065998809059912	-0.14011005752218963	0.5006445118566231	0.012195816910900215	-0.11868908115095611	0.5845090455882981	0.04488737151667099	-0.13201191968701753	0.5666592415070127	0.046827170052670564	-0.1296409123273784	0.5383354387237222	0.04560788792592019	-0.12288183716958845	0.5040385384592576	0.025666411330574346	-0.10233413500008448	0.5769731364025446	0.046612131803500656	-0.10526291753354033	0.5607063837066142	0.05438340878997583	-0.10526619303738971	0.5361361607867389	0.05685542748606598	-0.10204544029403684	0.5067889291966619	0.034534610076272565	-0.08545502311552511	0.5700187219242877	0.04647753384151254	-0.08234105096180344	0.5553753264834616	0.05469816639329439	-0.07902560673633796	0.534831498014971	0.05525104415570459	-0.07472939246827937	0.5077721320487307	0.03392427534269071	-0.06405966442575939	0.4622830810018609	-0.023011742144276925	-0.051989820119430985
58	1.966666666666658	0.5254291028658851	-0.0059578843139073134	-0.15281310202914472	0.5071048465607085	-0.01167097541689155	-0.14018051635117668	0.48821316618033883	-0.024007806696143552	-0.11873927090243408	0.47830563847225627	-0.027210296642474985	-0.07536329883428072	0.5751889796073495	0.032604009909666054	-0.1495789169582652	0.5572569956878692	0.03290635916094409	-0.1470584928586836	0.5333460857848207	0.029673116157720614	-0.13999985557586436	0.5009850903891699	0.01233307649571247	-0.1184191907222818	0.5844480871875486	0.047642964912796515	-0.13287881834035453	0.5666273864327696	0.048499255347249415	-0.129766039629864	0.5385212002092148	0.046163507084827526	-0.1224178339970956	0.5045163280703523	0.0255894644744602	-0.10200888099880567	0.5776521991877687	0.04901502093439669	-0.10597484531675738	0.5609100667876731	0.05566868512553258	-0.10531928789801792	0.5363361106818495	0.0570456422200859	-0.1015239421339511	0.5070155785062352	0.034553271025973054	-0.08511905063766212	0.5706722396148881	0.0489472482079244	-0.08236705451227211	0.5554542062101023	0.05590856729098492	-0.07876823582905956	0.5349627792173448	0.05539915747546842	-0.07422357517722356	0.5081091108059238	0.03371876486574721	-0.06374862791540903	0.4622830810018609	-0.023011742144276925	-0.051989820119430985
59	1.9999999999999911	0.5260543936019797	-0.0054196102536969715	-0.15187000062014577	0.5072886510597362	-0.011301539826490736	-0.13998514423317476	0.488281858582309	-0.023716222584513447	-0.11869107248215283	0.47834996446941114	-0.027170398870655532	-0.07533999238586864	0.574632414528613	0.034502376660522804	-0.15041357745397632	0.5567940764387429	0.03408110226348826	-0.14731257405606007	0.5330717624421197	0.03030085650613279	-0.13989830445888352	0.5008843599738979	0.012656015825138645	-0.11830509224552699	0.5843211788139671	0.0490214626718235	-0.13303987477851276	0.56656214188664	0.049285825096240354	-0.12949773984003443	0.5385484265512488	0.046524543846933164	-0.1219468042046381	0.5044361920798002	0.025814171444782485	-0.1018574076151646	0.5779659881110929	0.05003301788216241	-0.10629041876283296	0.5610539848646783	0.056168977003827836	-0.1051353638504956	0.5365123581846403	0.05707679865070947	-0.10100445611065179	0.5068647873922658	0.03478935209052081	-0.08491060306242604	0.5710239165084687	0.05011969832606111	-0.08239223248226935	0.5555426609521141	0.05634048837914951	-0.07856698771699777	0.5351036533569956	0.055328166922489874	-0.07387292840814041	0.5080820004375863	0.03377955206611294	-0.06355930042015678	0.462283081001861	-0.023011742144276925	-0.051989820119430985
60	2.0333333333333243	0.5262647339098288	-0.00486084310408208	-0.1512352747232691	0.5071925289414634	-0.01087997279707209	-0.13992063485345319	0.4881486765821178	-0.023404049084298162	-0.11872395585727102	0.47830697000033773	-0.027137068347340643	-0.0753754221019074	0.5741786109507789	0.035547863847494865	-0.1506982022809441	0.5564078024304154	0.03471409269831738	-0.1473065669521721	0.5327402774606397	0.0307530469694961	-0.13981202149969596	0.500558874601412	0.012967778752963954	-0.11832533635567932	0.5843249114539917	0.04903469490877155	-0.13272511719036295	0.5665861455802543	0.049248627171121995	-0.1290795145976691	0.5385369368168048	0.04658102244741924	-0.12162731205194444	0.5040989295730128	0.02611024605804002	-0.10185058603137753	0.5779515596963041	0.04997822537003893	-0.1061591248641015	0.5610143912621482	0.05599908573864343	-0.10478742305437516	0.5364824500793405	0.05703553180031129	-0.10062934412721247	0.5062914233318206	0.03527074592304824	-0.08483324227747013	0.5713181571680489	0.05006922116858059	-0.08246631711824681	0.5557615278657575	0.055972602810034466	-0.07844868473754929	0.5353311071510548	0.05500168517411452	-0.0737087219355319	0.5078667878462383	0.03396124306413251	-0.0635158611035781	0.4622830810018609	-0.023011742144276925	-0.051989820119430985
61	2.0666666666666575	0.525995065845384	-0.004241591696331537	-0.1510197163304805	0.5067803680972035	-0.010340115596355726	-0.1399923233164041	0.4878290103008044	-0.023031916153692378	-0.11881251603952703	0.478233590253046	-0.027074209233553748	-0.07543651137377227	0.5737481835489022	0.03612926304090802	-0.15075753952214416	0.5560002041782418	0.03516557777415119	-0.14728183254870036	0.5323366222240069	0.031184207965254562	-0.13978560572849164	0.5001556605622142	0.013316737013105429	-0.11836656554700042	0.584309944232893	0.04868741439169444	-0.1324028525523686	0.56655773307366	0.049108815885899215	-0.12884175444382373	0.5384601302961842	0.04662437801134167	-0.12150950808907957	0.5038638091082357	0.02627034111549953	-0.10188922105491516	0.5778875244248355	0.04976396166594499	-0.10605244170823325	0.5610030338082019	0.055926430234064184	-0.10466033619363968	0.5364815352372521	0.057045776674269466	-0.10046234257981634	0.5061173659633197	0.03540226560477777	-0.08483235579515191	0.5713529062210801	0.05004183381142269	-0.08260407635538602	0.5557723419975897	0.05582268627178233	-0.07850191067013623	0.5353475875427536	0.0549317300387403	-0.07372199210906694	0.5077568361611301	0.034038529170376974	-0.06356777886176568	0.4622830810018609	-0.023011742144276925	-0.051989820119430985
62	2.0999999999999908	0.5255361013448554	-0.0037845222714181226	-0.15107922534282386	0.5062683462231212	-0.009927805962794856	-0.14016988631352645	0.4874590190872895	-0.022749945617654865	-0.11894202849959401	0.47811094270100407	-0.027001069334029015	-0.07553199031688507	0.5733153493539181	0.03654771493136788	-0.15082755171938067	0.5555757585659922	0.0355321737964952	-0.1473238972158215	0.5319170113321792	0.031530413415127745	-0.13982326883036877	0.4997428018279344	0.01360543057979613	-0.11844217140460389	0.5841601317274776	0.04838466685712928	-0.1322148783794843	0.5663981861979484	0.049014248602585075	-0.12873394203536326	0.5382665844180183	0.046677132688496936	-0.12148408545060563	0.5035205782588553	0.026478773357884955	-0.10196770112002607	0.5774829191337134	0.049637131824513125	-0.10596021834000158	0.5606466972446537	0.05593086193467112	-0.10457076024317513	0.5361276840950308	0.05723718362574126	-0.10041245568385537	0.5055964575367266	0.03577586273979405	-0.08485685397013465	0.5711373069108666	0.050137384956643105	-0.08275737849713816	0.5555755714198675	0.05595527186212734	-0.07863614318922696	0.5351649407373295	0.05506745949882741	-0.07379569245106166	0.5076042077863835	0.03415222546428043	-0.06360538158795415	0.4622830810018608	-0.023011742144276925	-0.051989820119430985
63	2.133333333333324	0.5250398683366	-0.0035537419483541166	-0.1513331358099539	0.5058068159997001	-0.00973552332136085	-0.14038437894616285	0.4871339837786536	-0.02257106367753825	-0.11904441079694594	0.4780230529720435	-0.026960243096194936	-0.07559770731016802	0.5730530514800308	0.03679002667277198	-0.1508761962626866	0.5553193444710427	0.035747632589667955	-0.14735071043873577	0.5316750269880474	0.03169769727676386	-0.13983046391853382	0.4994516242970539	0.013808773772661875	-0.11849329379505047	0.5840968897368161	0.04821851475964101	-0.13219289577058158	0.5663319035481641	0.04894783334815078	-0.12874712153052192	0.538191244461316	0.046670416351238586	-0.12151343450522345	0.5034027272268267	0.026504670966886357	-0.10203910004370442	0.5771750995926674	0.04957184879082399	-0.10595070101479931	0.5603623448514948	0.05592434325394069	-0.10454460994049064	0.5358445860625897	0.057494805464410104	-0.10047114318420569	0.5054326589560957	0.035858678881819483	-0.08492400357039198	0.571030363551778	0.05033073423943668	-0.08297221981082692	0.5554640135387683	0.05611169749027989	-0.07881659577046096	0.5350748202817579	0.05514933121217325	-0.0739006351852809	0.5075836579175704	0.0341502746627409	-0.0636948002415032	0.4622830810018609	-0.023011742144276925	-0.051989820119430985
